<svg width="28" height="28" viewBox="0 0 28 28" fill="none" xmlns="http://www.w3.org/2000/svg">
<mask id="mask0_8_315" style="mask-type:alpha" maskUnits="userSpaceOnUse" x="4" y="0" width="24" height="24">
<rect x="4" width="24" height="24" fill="#D9D9D9"/>
</mask>
<g mask="url(#mask0_8_315)">
<path d="M9.2 22V18.6C8.68 18.3733 8.22333 18.07 7.83 17.69C7.43667 17.31 7.10333 16.88 6.83 16.4C6.55667 15.92 6.35 15.4067 6.21 14.86C6.07 14.3133 6 13.76 6 13.2C6 11.0933 6.74667 9.36667 8.24 8.02C9.73333 6.67333 11.6533 6 14 6C16.3467 6 18.2667 6.67333 19.76 8.02C21.2533 9.36667 22 11.0933 22 13.2C22 13.76 21.93 14.3133 21.79 14.86C21.65 15.4067 21.4433 15.92 21.17 16.4C20.8967 16.88 20.5633 17.31 20.17 17.69C19.7767 18.07 19.32 18.3733 18.8 18.6V22H9.2ZM10.8 20.4H11.6V18.8H13.2V20.4H14.8V18.8H16.4V20.4H17.2V17.56C17.7067 17.44 18.1567 17.24 18.55 16.96C18.9433 16.68 19.2767 16.3467 19.55 15.96C19.8233 15.5733 20.0333 15.1467 20.18 14.68C20.3267 14.2133 20.4 13.72 20.4 13.2C20.4 11.5333 19.81 10.1833 18.63 9.15C17.45 8.11667 15.9067 7.6 14 7.6C12.0933 7.6 10.55 8.11667 9.37 9.15C8.19 10.1833 7.6 11.5333 7.6 13.2C7.6 13.72 7.67333 14.2133 7.82 14.68C7.96667 15.1467 8.17667 15.5733 8.45 15.96C8.72333 16.3467 9.06 16.68 9.46 16.96C9.86 17.24 10.3067 17.44 10.8 17.56V20.4ZM12.8 16.4H15.2L14 14L12.8 16.4ZM11.2 14.8C11.64 14.8 12.0167 14.6433 12.33 14.33C12.6433 14.0167 12.8 13.64 12.8 13.2C12.8 12.76 12.6433 12.3833 12.33 12.07C12.0167 11.7567 11.64 11.6 11.2 11.6C10.76 11.6 10.3833 11.7567 10.07 12.07C9.75667 12.3833 9.6 12.76 9.6 13.2C9.6 13.64 9.75667 14.0167 10.07 14.33C10.3833 14.6433 10.76 14.8 11.2 14.8ZM16.8 14.8C17.24 14.8 17.6167 14.6433 17.93 14.33C18.2433 14.0167 18.4 13.64 18.4 13.2C18.4 12.76 18.2433 12.3833 17.93 12.07C17.6167 11.7567 17.24 11.6 16.8 11.6C16.36 11.6 15.9833 11.7567 15.67 12.07C15.3567 12.3833 15.2 12.76 15.2 13.2C15.2 13.64 15.3567 14.0167 15.67 14.33C15.9833 14.6433 16.36 14.8 16.8 14.8Z" fill="#1C1B1F"/>
</g>
</svg>
