<svg width="28" height="28" viewBox="0 0 28 28" fill="none" xmlns="http://www.w3.org/2000/svg">
<mask id="mask0_8_291" style="mask-type:alpha" maskUnits="userSpaceOnUse" x="2" y="2" width="24" height="24">
<rect x="2" y="2" width="24" height="24" fill="#D9D9D9"/>
</mask>
<g mask="url(#mask0_8_291)">
<path d="M4.154 20C3.54022 20 3.02778 19.7996 2.61667 19.3988C2.20556 18.9979 2 18.4983 2 17.8999V9.10015C2 8.50172 2.20556 8.00208 2.61667 7.60125C3.02778 7.20042 3.54022 7 4.154 7H23.846C24.4598 7 24.9722 7.20042 25.3833 7.60125C25.7944 8.00208 26 8.50172 26 9.10015V17.8999C26 18.4983 25.7944 18.9979 25.3833 19.3988C24.9722 19.7996 24.4598 20 23.846 20H4.154ZM4.154 18.7H23.846C24.0513 18.7 24.2394 18.6167 24.4103 18.4501C24.5812 18.2835 24.6667 18.1001 24.6667 17.8999V9.10015C24.6667 8.89995 24.5812 8.71654 24.4103 8.54993C24.2394 8.38331 24.0513 8.3 23.846 8.3H20V12.5H18.6667V8.3H14.6667V12.5H13.3333V8.3H9.33333V12.5H8V8.3H4.154C3.94867 8.3 3.76056 8.38331 3.58967 8.54993C3.41878 8.71654 3.33333 8.89995 3.33333 9.10015V17.8999C3.33333 18.1001 3.41878 18.2835 3.58967 18.4501C3.76056 18.6167 3.94867 18.7 4.154 18.7Z" fill="#1C1B1F"/>
</g>
</svg>
