<svg width="28" height="28" viewBox="0 0 28 28" fill="none" xmlns="http://www.w3.org/2000/svg">
<mask id="mask0_8_302" style="mask-type:alpha" maskUnits="userSpaceOnUse" x="2" y="0" width="24" height="24">
<rect x="2" width="24" height="24" fill="#D9D9D9"/>
</mask>
<g mask="url(#mask0_8_302)">
<path d="M13.5 20.5V12.602C12.5615 12.602 11.6647 12.4267 10.8095 12.076C9.95454 11.7254 9.19687 11.2199 8.53654 10.5595C7.87637 9.89936 7.37512 9.13786 7.03279 8.27503C6.69045 7.41219 6.51929 6.51286 6.51929 5.57703V4.57703H7.51929C8.43712 4.57703 9.3257 4.75611 10.185 5.11428C11.0445 5.47244 11.8021 5.98053 12.4578 6.63853C12.9873 7.16803 13.4165 7.76994 13.7453 8.44428C14.0741 9.11861 14.2917 9.83144 14.398 10.5828C14.5455 10.2994 14.711 10.0331 14.8943 9.78378C15.0776 9.53428 15.2853 9.29353 15.5173 9.06153C16.1758 8.40369 16.9368 7.89561 17.8003 7.53728C18.6636 7.17911 19.5635 7.00003 20.5 7.00003H21.5V8.00003C21.5 8.93703 21.3207 9.83736 20.962 10.701C20.6035 11.5649 20.0949 12.3262 19.436 12.985C18.7774 13.6437 18.0247 14.1442 17.178 14.4865C16.3312 14.8289 15.4385 15 14.5 15V20.5H13.5ZM13.5193 11.577C13.5193 10.777 13.3651 10.0145 13.0568 9.28953C12.7485 8.56453 12.311 7.91869 11.7443 7.35203C11.1776 6.78536 10.5318 6.34786 9.80679 6.03953C9.08179 5.73119 8.31929 5.57703 7.51929 5.57703C7.51929 6.37703 7.66929 7.14369 7.96929 7.87703C8.26929 8.61036 8.70262 9.26036 9.26929 9.82703C9.83595 10.3937 10.486 10.827 11.2193 11.127C11.9526 11.427 12.7193 11.577 13.5193 11.577ZM14.5 14C15.3 14 16.0625 13.85 16.7875 13.55C17.5125 13.25 18.1584 12.8167 18.725 12.25C19.2917 11.6834 19.7292 11.0334 20.0375 10.3C20.3459 9.56669 20.5 8.80003 20.5 8.00003C19.7 8.00003 18.9334 8.15419 18.2 8.46253C17.4667 8.77086 16.8167 9.20836 16.25 9.77503C15.6834 10.3417 15.25 10.9875 14.95 11.7125C14.65 12.4375 14.5 13.2 14.5 14Z" fill="#1C1B1F"/>
</g>
</svg>
