<svg width="28" height="28" viewBox="0 0 28 28" fill="none" xmlns="http://www.w3.org/2000/svg">
<rect x="0.5" y="0.5" width="27" height="27" rx="2.5" stroke="black"/>
<path d="M6.00426 19V8.81818H7.84872V17.4538H12.3331V19H6.00426ZM22.2527 12.2536H20.3933C20.3403 11.9486 20.2425 11.6785 20.1 11.4432C19.9574 11.2045 19.7801 11.0024 19.568 10.8366C19.3559 10.6709 19.1139 10.5466 18.8422 10.4638C18.5737 10.3776 18.2837 10.3345 17.9721 10.3345C17.4186 10.3345 16.9281 10.4737 16.5005 10.7521C16.073 11.0272 15.7382 11.4316 15.4963 11.9652C15.2543 12.4955 15.1333 13.1435 15.1333 13.9091C15.1333 14.688 15.2543 15.3442 15.4963 15.8778C15.7415 16.4081 16.0763 16.8092 16.5005 17.081C16.9281 17.3494 17.417 17.4837 17.9672 17.4837C18.2721 17.4837 18.5571 17.4439 18.8223 17.3643C19.0907 17.2815 19.331 17.1605 19.5431 17.0014C19.7586 16.8423 19.9392 16.6468 20.085 16.4148C20.2342 16.1828 20.3369 15.9176 20.3933 15.6193L22.2527 15.6293C22.1831 16.1132 22.0323 16.5672 21.8002 16.9915C21.5716 17.4157 21.2716 17.7902 20.9004 18.1151C20.5292 18.4366 20.095 18.6884 19.5978 18.8707C19.1007 19.0497 18.5488 19.1392 17.9423 19.1392C17.0474 19.1392 16.2486 18.9321 15.546 18.5178C14.8433 18.1035 14.2898 17.5052 13.8855 16.723C13.4811 15.9408 13.2789 15.0028 13.2789 13.9091C13.2789 12.812 13.4828 11.8741 13.8904 11.0952C14.2981 10.313 14.8533 9.71473 15.5559 9.30043C16.2586 8.88613 17.054 8.67898 17.9423 8.67898C18.5091 8.67898 19.036 8.75852 19.5233 8.91761C20.0105 9.0767 20.4447 9.31037 20.8258 9.61861C21.207 9.92353 21.5202 10.2981 21.7654 10.7422C22.014 11.183 22.1764 11.6868 22.2527 12.2536Z" fill="black"/>
</svg>
